<?xml version="1.0" standalone="no"?>
<!DOCTYPE svg PUBLIC "-//W3C//DTD SVG 20010904//EN"
 "http://www.w3.org/TR/2001/REC-SVG-20010904/DTD/svg10.dtd">
<svg version="1.0" xmlns="http://www.w3.org/2000/svg"
 width="1280.000000pt" height="1186.000000pt" viewBox="0 0 1280.000000 1186.000000"
 preserveAspectRatio="xMidYMid meet">
<g transform="translate(0.000000,1186.000000) scale(0.100000,-0.100000)"
fill="#000000" stroke="none">
<path d="M12530 11796 c-30 -18 -145 -86 -255 -151 -2097 -1241 -4403 -3278
-6551 -5785 -700 -818 -1431 -1747 -2076 -2640 -74 -102 -141 -186 -149 -188
-8 -1 -748 412 -1644 918 -897 507 -1634 922 -1639 923 -12 3 -168 -183 -164
-194 2 -5 905 -1056 2008 -2335 1103 -1279 2007 -2330 2008 -2335 2 -5 34 -9
71 -9 l67 0 227 453 c2278 4544 4745 7886 8107 10982 107 99 195 185 194 191
-1 9 -141 204 -147 204 -1 0 -27 -15 -57 -34z"/>
</g>
</svg>
